<?xml version="1.0" encoding="UTF-8" standalone="no"?>
<!-- Created with Inkscape (http://www.inkscape.org/) -->

<svg
   xmlns:dc="http://purl.org/dc/elements/1.1/"
   xmlns:cc="http://creativecommons.org/ns#"
   xmlns:rdf="http://www.w3.org/1999/02/22-rdf-syntax-ns#"
   xmlns:svg="http://www.w3.org/2000/svg"
   xmlns="http://www.w3.org/2000/svg"
   xmlns:sodipodi="http://sodipodi.sourceforge.net/DTD/sodipodi-0.dtd"
   xmlns:inkscape="http://www.inkscape.org/namespaces/inkscape"
   width="200"
   height="200"
   id="svg2"
   version="1.1"
   inkscape:version="0.48.0 r9654"
   inkscape:export-filename="F:\doselect\profile pics\darth vader.png"
   inkscape:export-xdpi="900"
   inkscape:export-ydpi="900"
   sodipodi:docname="darthvader.svg">
  <defs
     id="defs4" />
  <sodipodi:namedview
     id="base"
     pagecolor="#ffffff"
     bordercolor="#666666"
     borderopacity="1.0"
     inkscape:pageopacity="0.0"
     inkscape:pageshadow="2"
     inkscape:zoom="2.775"
     inkscape:cx="100"
     inkscape:cy="100"
     inkscape:document-units="px"
     inkscape:current-layer="layer1"
     showgrid="false"
     inkscape:window-width="1366"
     inkscape:window-height="705"
     inkscape:window-x="-8"
     inkscape:window-y="-8"
     inkscape:window-maximized="1" />
  <metadata
     id="metadata7">
    <rdf:RDF>
      <cc:Work
         rdf:about="">
        <dc:format>image/svg+xml</dc:format>
        <dc:type
           rdf:resource="http://purl.org/dc/dcmitype/StillImage" />
        <dc:title></dc:title>
      </cc:Work>
    </rdf:RDF>
  </metadata>
  <g
     inkscape:label="Layer 1"
     inkscape:groupmode="layer"
     id="layer1"
     transform="translate(0,-852.36218)">
    <g
       id="g3793"
       transform="matrix(-1,0,0,1,3860.0369,0)">
      <g
         id="g3811" />
    </g>
    <g
       id="g4573"
       transform="matrix(0.99698953,0,0,1.0004392,1.4772736e-4,-0.46214787)">
      <g
         id="g6965"
         transform="matrix(1.1519049,0,0,1.0641739,-19818.512,6821.6472)">
        <g
           id="g6821"
           transform="matrix(1,0,0,0.99132279,0,-48.672492)">
          <g
             style="fill:#d3d7cf"
             id="g10666"
             transform="translate(84.202826,381.73773)"
             inkscape:export-filename="F:\inkscape\darth vader.png"
             inkscape:export-xdpi="167.89999"
             inkscape:export-ydpi="167.89999">
            <g
               id="g10668"
               style="fill:#d3d7cf;fill-opacity:1"
               transform="matrix(0.44281765,0,0,0.44978169,10356.559,-3436.2937)">
              <rect
                 ry="0"
                 y="-5679.8188"
                 x="15275.521"
                 height="421.31784"
                 width="393.27637"
                 id="rect10670"
                 style="fill:#d3d7cf;fill-opacity:1;fill-rule:nonzero;stroke:none" />
            </g>
            <rect
               ry="0"
               y="-5679.8188"
               x="15471.123"
               height="421.31784"
               width="197.67313"
               id="rect10672"
               style="fill:#babdb6;fill-opacity:1;fill-rule:nonzero;stroke:none"
               transform="matrix(0.44281765,0,0,0.44978169,10356.559,-3436.2937)" />
          </g>
        </g>
      </g>
      <g
         transform="matrix(0.18674627,0,0,0.18674627,-260.48986,854.18366)"
         id="g3857">
        <g
           id="g3786">
          <path
             style="fill:#5c5c5c;fill-opacity:1;stroke:none"
             d="m 1563.5714,976.64789 c -52.765,-16.29939 -78.7774,-49.32011 -71.4285,-90 33.0311,-132.78128 73.5513,-242.18471 121.4285,-357.85714 l 34.2857,-69.28571 63.5715,-78.57143 52.1428,5 -57.8571,78.57143 -72.8572,127.14285 c 0,0 -90.7142,232.14286 -91.4285,235.71429 -0.7143,3.57143 -20,94.28571 -20,94.28571 z"
             id="path3768"
             inkscape:connector-curvature="0"
             sodipodi:nodetypes="ccccccccscc" />
          <path
             style="fill:#2e2e2e;fill-opacity:1;stroke:none"
             d="m 1613.4489,530.05472 c 2.683,-60.53319 7.4562,-140.01847 37.9797,-231.97825 2.5229,-8.11894 13.9849,-52.13091 71.4285,-105.71429 52.4094,-48.8926 138.3339,-58.52294 207.7495,-63.36222 l 1.5363,338.36222 0.9742,494.58158 -255.9742,27.56128 c -50.7666,-1.5752 -107.5402,-3.62871 -135.3751,-24.71157 -27.4654,-21.61294 -37.0876,-35.77173 -36.0535,-68.14558 l 8.5714,-34.28571 c 34.6668,-98.39465 59.2085,-185.21791 105.7143,-297.14286 28.4865,-66.29654 61.4355,-117.0209 114.2857,-164.28571 -1.4774,-4.34184 -5.4344,-4.55717 -14.4642,-2.85714 -49.2252,44.69952 -79.5423,81.34444 -106.3726,131.97825 z"
             id="path3766"
             inkscape:connector-curvature="0"
             sodipodi:nodetypes="cccccccccccccc" />
          <path
             style="fill:#1b1b1b;fill-opacity:1;stroke:none"
             d="m 1890,516.64789 c -47.607,-32.00594 -107.3154,-39.84174 -154.2857,-10 -13.7403,11.70126 -24.501,23.26013 -31.4286,40 -5.5932,14.25587 -9.5764,29.07827 -10,44.28572 13.623,27.60564 33.8299,34.07263 60,37.14286 31.488,2.53609 59.4748,-0.2868 87.0265,-2.17876 19.8729,-3.32673 36.8866,-8.79785 52.9735,-14.9641 z"
             id="path2996"
             inkscape:connector-curvature="0"
             sodipodi:nodetypes="cccccccc" />
          <path
             style="fill:#5c5c5c;fill-opacity:1;stroke:none"
             d="m 1879.8939,663.45345 c -4.8465,-2.79586 -11.3195,-4.77852 -20.2031,-5.55584 l -130.3096,18.18275 c -5.4633,1.15956 -4.4216,3.94537 -4.0407,6.56599 l 32.3249,110.10663 c 2.692,3.81325 6.9358,7.20909 11.1117,7.57614 5.8183,-0.042 9.2315,-3.69551 10.6066,-4.54569 32.9386,-29.69802 65.0348,-63.4294 94.9543,-107.58124 2.1215,-7.44085 4.6916,-13.53614 5.5559,-24.74874 z"
             id="path3770"
             inkscape:connector-curvature="0"
             sodipodi:nodetypes="ccccccccc" />
          <path
             style="fill:#5c5c5c;fill-opacity:1;stroke:none"
             d="m 1778.8786,867.50426 c 51.3705,1.66254 102.4028,5.35375 154.1114,4.98763 l -0.3157,-228.98896 c -47.722,-4.45255 -50.7489,35.78005 -55.8109,63.38708 z"
             id="path3772"
             inkscape:connector-curvature="0"
             sodipodi:nodetypes="ccccc" />
        </g>
        <path
           transform="matrix(-1,0,0,1,3860.0369,0)"
           sodipodi:nodetypes="ccccccccscc"
           inkscape:connector-curvature="0"
           id="path3795"
           d="m 1563.5714,976.64789 c -52.765,-16.29939 -78.7774,-49.32011 -71.4285,-90 33.0311,-132.78128 73.5513,-242.18471 121.4285,-357.85714 l 34.2857,-69.28571 63.5715,-78.57143 52.1428,5 -57.8571,78.57143 -72.8572,127.14285 c 0,0 -90.7142,232.14286 -91.4285,235.71429 -0.7143,3.57143 -20,94.28571 -20,94.28571 z"
           style="fill:#535353;fill-opacity:1;stroke:none" />
        <path
           transform="matrix(-1,0,0,1,3860.0369,0)"
           sodipodi:nodetypes="cccccccccccccc"
           inkscape:connector-curvature="0"
           id="path3797"
           d="m 1613.4489,530.05472 c 2.683,-60.53319 7.4562,-140.01847 37.9797,-231.97825 2.5229,-8.11894 13.9849,-52.13091 71.4285,-105.71429 52.4094,-48.8926 138.3339,-58.52294 207.7495,-63.36222 l 1.5363,338.36222 0.9742,494.58158 -255.9742,27.56128 c -50.7666,-1.5752 -107.5402,-3.62871 -135.3751,-24.71157 -27.4654,-21.61294 -37.0876,-35.77173 -36.0535,-68.14558 l 8.5714,-34.28571 c 34.6668,-98.39465 59.2085,-185.21791 105.7143,-297.14286 28.4865,-66.29654 61.4355,-117.0209 114.2857,-164.28571 -1.4774,-4.34184 -5.4344,-4.55717 -14.4642,-2.85714 -49.2252,44.69952 -79.5423,81.34444 -106.3726,131.97825 z"
           style="fill:#262626;fill-opacity:1;stroke:none" />
        <path
           transform="matrix(-1,0,0,1,3860.0369,0)"
           sodipodi:nodetypes="cccccccc"
           inkscape:connector-curvature="0"
           id="path3799"
           d="m 1890,516.64789 c -47.607,-32.00594 -107.3154,-39.84174 -154.2857,-10 -13.7403,11.70126 -24.501,23.26013 -31.4286,40 -5.5932,14.25587 -9.5764,29.07827 -10,44.28572 13.623,27.60564 33.8299,34.07263 60,37.14286 31.488,2.53609 59.4748,-0.2868 87.0265,-2.17876 19.8729,-3.32673 36.8866,-8.79785 52.9735,-14.9641 z"
           style="fill:#121212;fill-opacity:1;stroke:none" />
        <path
           transform="matrix(-1,0,0,1,3860.0369,0)"
           sodipodi:nodetypes="ccccccccc"
           inkscape:connector-curvature="0"
           id="path3801"
           d="m 1879.8939,663.45345 c -4.8465,-2.79586 -11.3195,-4.77852 -20.2031,-5.55584 l -130.3096,18.18275 c -5.4633,1.15956 -4.4216,3.94537 -4.0407,6.56599 l 32.3249,110.10663 c 2.692,3.81325 6.9358,7.20909 11.1117,7.57614 5.8183,-0.042 9.2315,-3.69551 10.6066,-4.54569 32.9386,-29.69802 65.0348,-63.4294 94.9543,-107.58124 2.1215,-7.44085 4.6916,-13.53614 5.5559,-24.74874 z"
           style="fill:#535353;fill-opacity:1;stroke:none" />
        <path
           transform="matrix(-1,0,0,1,3860.0369,0)"
           sodipodi:nodetypes="ccccc"
           inkscape:connector-curvature="0"
           id="path3803"
           d="m 1778.8786,867.50426 154.1114,4.98763 -0.3157,-228.98896 c -47.722,-4.45255 -50.7489,35.78005 -55.8109,63.38708 z"
           style="fill:#4d4d4d;fill-opacity:1;stroke:none" />
        <path
           style="fill:#363636;fill-opacity:1;stroke:none"
           d="m 1917.1862,765.24637 -0.052,107.15273 9.9698,0.097 0.07,-107.58929 z"
           id="path3826"
           inkscape:connector-curvature="0"
           sodipodi:nodetypes="ccccc" />
        <path
           sodipodi:nodetypes="ccccc"
           inkscape:connector-curvature="0"
           id="path3828"
           d="m 1867.9023,773.79075 -0.1783,97.45537 17.1512,0.59152 0.2988,-98.35937 z"
           style="fill:#363636;fill-opacity:1;stroke:none" />
        <path
           style="fill:#363636;fill-opacity:1;stroke:none"
           d="m 1823.9023,799.4219 -0.2229,70.18243 17.4637,0.52015 0.031,-70.93192 z"
           id="path3830"
           inkscape:connector-curvature="0"
           sodipodi:nodetypes="ccccc" />
        <path
           sodipodi:nodetypes="ccccc"
           inkscape:connector-curvature="0"
           id="path3832"
           d="m 1937.1538,765.23521 0.052,107.15273 -9.9698,0.097 -0.07,-107.58929 z"
           style="fill:#2e2e2e;fill-opacity:1;stroke:none" />
        <path
           style="fill:#2e2e2e;fill-opacity:1;stroke:none"
           d="m 1986.4377,773.77959 0.1783,97.45537 -17.1512,0.59152 -0.2988,-98.35937 z"
           id="path3834"
           inkscape:connector-curvature="0"
           sodipodi:nodetypes="ccccc" />
        <path
           sodipodi:nodetypes="ccccc"
           inkscape:connector-curvature="0"
           id="path3836"
           d="m 2030.4377,799.41074 0.2229,70.18243 -17.4637,0.52015 -0.031,-70.93192 z"
           style="fill:#2e2e2e;fill-opacity:1;stroke:none" />
        <path
           sodipodi:nodetypes="ccccc"
           inkscape:connector-curvature="0"
           id="path3838"
           d="m 1917.1862,275.09951 -0.052,193.22168 9.9698,0.17491 0.07,-194.0089 z"
           style="fill:#5c5c5c;fill-opacity:1;stroke:none" />
        <path
           style="fill:#5c5c5c;fill-opacity:1;stroke:none"
           d="m 1867.9023,290.50704 -0.1783,175.73505 17.1512,1.06665 0.2988,-177.36517 z"
           id="path3840"
           inkscape:connector-curvature="0"
           sodipodi:nodetypes="ccccc" />
        <path
           style="fill:#535353;fill-opacity:1;stroke:none"
           d="m 1937.1538,275.07939 0.052,193.22167 -9.9698,0.17492 -0.07,-194.0089 z"
           id="path3842"
           inkscape:connector-curvature="0"
           sodipodi:nodetypes="ccccc" />
        <path
           sodipodi:nodetypes="ccccc"
           inkscape:connector-curvature="0"
           id="path3844"
           d="m 1986.4377,290.48692 0.1783,175.73505 -17.1512,1.06665 -0.2988,-177.36517 z"
           style="fill:#535353;fill-opacity:1;stroke:none" />
      </g>
    </g>
  </g>
</svg>
