<?xml version="1.0" encoding="UTF-8" standalone="no"?>
<!-- Created with Inkscape (http://www.inkscape.org/) -->

<svg
   xmlns:dc="http://purl.org/dc/elements/1.1/"
   xmlns:cc="http://creativecommons.org/ns#"
   xmlns:rdf="http://www.w3.org/1999/02/22-rdf-syntax-ns#"
   xmlns:svg="http://www.w3.org/2000/svg"
   xmlns="http://www.w3.org/2000/svg"
   xmlns:sodipodi="http://sodipodi.sourceforge.net/DTD/sodipodi-0.dtd"
   xmlns:inkscape="http://www.inkscape.org/namespaces/inkscape"
   width="200"
   height="200"
   id="svg2"
   version="1.1"
   inkscape:version="0.91 r13725"
   inkscape:export-filename="F:\doselect\profile pics\deadpool.png"
   inkscape:export-xdpi="900"
   inkscape:export-ydpi="900"
   sodipodi:docname="deadpool.svg">
  <defs
     id="defs4" />
  <sodipodi:namedview
     id="base"
     pagecolor="#ffffff"
     bordercolor="#666666"
     borderopacity="1.0"
     inkscape:pageopacity="0.0"
     inkscape:pageshadow="2"
     inkscape:zoom="1.3874996"
     inkscape:cx="-173.66786"
     inkscape:cy="40.491547"
     inkscape:document-units="px"
     inkscape:current-layer="g5254"
     showgrid="false"
     showguides="true"
     inkscape:guide-bbox="true"
     inkscape:window-width="1920"
     inkscape:window-height="1028"
     inkscape:window-x="0"
     inkscape:window-y="147"
     inkscape:window-maximized="1" />
  <metadata
     id="metadata7">
    <rdf:RDF>
      <cc:Work
         rdf:about="">
        <dc:format>image/svg+xml</dc:format>
        <dc:type
           rdf:resource="http://purl.org/dc/dcmitype/StillImage" />
        <dc:title />
      </cc:Work>
    </rdf:RDF>
  </metadata>
  <g
     inkscape:label="Layer 1"
     inkscape:groupmode="layer"
     id="layer1"
     transform="translate(0,-852.36218)">
    <g
       id="g3770"
       transform="matrix(0.99903878,0.04383509,-0.04383509,0.99903878,25.406098,-31.15677)" />
    <g
       id="g3794"
       transform="matrix(-1,0,0,1,1607.7485,-0.01531899)">
      <g
         id="g4115"
         transform="matrix(0.22533685,0,0,0.22533685,1924.0797,584.78019)">
        <g
           id="g4272"
           transform="translate(589.71217,-0.515302)">
          <g
             id="g5274">
            <g
               id="g5254">
              <g
                 id="g5552">
                <g
                   transform="matrix(4.4378006,0,0,4.4378006,-8538.6819,-2595.1379)"
                   id="g3838">
                  <rect
                     rx="0"
                     transform="scale(-1,1)"
                     y="852.3775"
                     x="-1474.8124"
                     height="200"
                     width="200"
                     id="rect3836"
                     style="fill:#7a0000;fill-opacity:1;fill-rule:nonzero;stroke:none" />
                  <rect
                     ry="0"
                     rx="0"
                     transform="scale(-1,1)"
                     y="852.37756"
                     x="-1374.9331"
                     height="200"
                     width="100"
                     id="rect3832"
                     style="fill:#611009;fill-opacity:1;fill-rule:nonzero;stroke:none" />
                </g>
                <g
                   id="g5532">
                  <path
                     style="fill:#0b0205;fill-opacity:1;stroke:none"
                     d="m -2727.9759,1969.637 c -2.4788,0.2725 -6.0402,3.2798 -9.7955,5.7405 -24.8654,-7.3922 -118.9059,85.9742 -118.9285,99.7261 l 80.5011,0 111.0673,0 c 1.5769,-35.0214 -33.1136,-84.4302 -62.8443,-105.4669 z"
                     id="path4073"
                     inkscape:connector-curvature="0"
                     sodipodi:nodetypes="ccccccc" />
                  <rect
                     style="fill:#39312b;fill-opacity:1;fill-rule:nonzero;stroke:none"
                     id="rect4005"
                     width="56.362019"
                     height="385.91055"
                     x="729.54126"
                     y="2603.137"
                     transform="matrix(-0.75205624,-0.65909894,-0.55907117,0.82911967,0,0)"
                     rx="0" />
                  <path
                     style="fill:#cc1e10;fill-opacity:1;stroke:none"
                     d="m -2299.1876,1888.8775 11.5,7.5 1,8.5 c 6.7707,4.3792 11.7207,9.1225 13.5,14.5 12.3802,0.7717 24.104,8.4399 36,13 14.1442,-2.5349 36.0684,8.1028 49,16 l -0.5,4 c 5.2463,-3.087 28.3333,11.6667 42.5,17.5 -29.7256,20.6511 -60.3939,69.7782 -59.1716,105.2261 l -246.9379,0 1.6095,-108.2261 z"
                     id="path3999"
                     inkscape:connector-curvature="0"
                     sodipodi:nodetypes="cccccccccccc" />
                  <path
                     style="fill:#0b0205;fill-opacity:1;stroke:none"
                     d="m -2315.6876,1852.3775 3,3.5 c 2.3887,5.6996 5.2371,9.5698 8.5,14 l 0.2955,12.3813 9.7045,9.6187 1,11 c -19.5402,37.361 -77.7111,49.9134 -134.5,64 l -23,0.5 -0.5,-34.5 z"
                     id="path3997"
                     inkscape:connector-curvature="0"
                     sodipodi:nodetypes="cccccccccc" />
                  <path
                     style="fill:#a6170d;fill-opacity:1;stroke:none"
                     d="m -2316.6876,1813.3775 0.5,48.25 3.75,7.25 c -14.3686,36.6835 -58.9395,52.5417 -106.25,65.5 l -32,-0.5 -0.5,-13 z"
                     id="path3995"
                     inkscape:connector-curvature="0"
                     sodipodi:nodetypes="ccccccc" />
                  <path
                     style="fill:#df2112;fill-opacity:1;stroke:none"
                     d="m -2450.1876,1456.3775 0,467 c 12.8746,0.048 30.436,0.1144 41,-2 22.8448,-8.8039 43.0961,-23.6994 52,-35 14.6156,-31.3361 33.8624,-60.0272 52.1213,-89.2929 1.6036,-17.1645 17.763,-40.7024 21.3787,-59.7071 -0.6757,-21.058 -0.062,-43.8346 0.75,-66.75 l 0.75,-27 c 0.1897,-15.5217 -0.5121,-31.0044 -1.25,-46.5 -4.4963,-39.5324 -21.4614,-76.9234 -36.75,-95.25 l -9.25,-21.5 -14.25,-3 c -36.4897,-17.8488 -76.3802,-25.8702 -106.5,-21 z"
                     id="path3993"
                     inkscape:connector-curvature="0"
                     sodipodi:nodetypes="ccccccccccccc" />
                  <rect
                     rx="0"
                     transform="matrix(0.75205624,-0.65909894,0.55907117,0.82911967,0,0)"
                     y="-635.9129"
                     x="-3345.0518"
                     height="385.91055"
                     width="56.362019"
                     id="rect4043"
                     style="fill:#302924;fill-opacity:1;fill-rule:nonzero;stroke:none" />
                  <g
                     id="g4045"
                     transform="matrix(-1,0,0,1,-4875.1825,0)">
                    <path
                       style="fill:#b81b0e;fill-opacity:1;stroke:none"
                       d="m 3774,1036.5 -11.5,7.5 -1,8.5 c -6.7707,4.3792 -11.7207,9.1225 -13.5,14.5 -12.3802,0.7717 -24.104,8.4399 -36,13 -14.1442,-2.5349 -36.0684,8.1028 -49,16 l 0.5,4 c -5.2463,-3.087 -28.3333,11.6667 -42.5,17.5 29.7256,20.6511 61.5034,69.7782 60.2811,105.2261 l 231.2568,0 0.5547,-107.8725 z"
                       id="path4047"
                       inkscape:connector-curvature="0"
                       transform="matrix(-1,0,0,1,1474.8124,852.3775)"
                       sodipodi:nodetypes="cccccccccccc" />
                    <path
                       style="fill:#000000;fill-opacity:1;stroke:none"
                       d="m 3790.5,1000 -3,3.5 c -2.3887,5.6996 -5.2371,9.5698 -8.5,14 l -0.2955,12.3813 -9.7045,9.6187 -1,11 c 19.5402,37.361 77.7111,49.9134 134.5,64 l 10.5926,0.5 0,-33.0858 z"
                       id="path4049"
                       inkscape:connector-curvature="0"
                       transform="matrix(-1,0,0,1,1474.8124,852.3775)"
                       sodipodi:nodetypes="cccccccccc" />
                    <path
                       style="fill:#97150c;fill-opacity:1;stroke:none"
                       d="m 3791.5,961 -0.5,48.25 -3.75,7.25 c 14.3686,36.6835 58.9395,52.5417 106.25,65.5 l 19.5926,0.2071 0,-11.2322 z"
                       id="path4051"
                       inkscape:connector-curvature="0"
                       transform="matrix(-1,0,0,1,1474.8124,852.3775)"
                       sodipodi:nodetypes="ccccccc" />
                    <path
                       style="fill:#cb1e10;fill-opacity:1;stroke:none"
                       d="m -2438.1353,1455.088 -0.1449,468.2739 c 12.3558,-0.085 28.418,0.1146 38.1798,-1.9844 21.2102,-8.8039 40.0124,-23.6994 48.2792,-35 13.5699,-31.3361 31.4395,-60.0272 48.3919,-89.2929 1.4889,-17.1645 16.492,-40.7024 19.849,-59.7071 -0.6273,-21.058 -0.057,-43.8346 0.6964,-66.75 l 0.6963,-27 c 0.1761,-15.5217 -0.4755,-31.0044 -1.1606,-46.5 -4.1745,-39.5324 -19.9257,-76.9234 -34.1204,-95.25 l -8.5881,-21.5 -13.2304,-3 c -33.7664,-17.3832 -69.3343,-22.8419 -98.8482,-22.2895 z"
                       id="path4053"
                       inkscape:connector-curvature="0"
                       sodipodi:nodetypes="ccccccccccccc" />
                    <path
                       sodipodi:nodetypes="ccccccccc"
                       inkscape:connector-curvature="0"
                       id="path4055"
                       d="m -2326.015,1548.0594 c -21.2405,-0.5956 -35.7305,10.0599 -51.6188,18.3847 -12.4922,21.4385 -24.9844,62.9703 -37.4766,96.1666 l -0.7072,23.3345 c 12.3864,32.7052 30.8524,65.3971 55.1544,87.6812 25.1135,-15.7286 33.6842,-38.0488 43.8406,-62.2254 4.3296,-17.994 5.7798,-35.2682 6.364,-52.3259 l -7.7782,-62.9325 z"
                       style="fill:#17040a;fill-opacity:1;stroke:none" />
                  </g>
                  <path
                     sodipodi:nodetypes="ccccccccc"
                     inkscape:connector-curvature="0"
                     id="path4003"
                     d="m -2328.015,1548.0594 c -21.2405,-0.5956 -35.7305,10.0599 -51.6188,18.3847 -12.4922,21.4385 -24.9844,62.9703 -37.4766,96.1666 l -0.7072,23.3345 c 12.3864,32.7052 30.8524,65.3971 55.1544,87.6812 25.1135,-15.7286 33.6842,-38.0488 43.8406,-62.2254 4.3296,-17.994 5.7798,-35.2682 6.364,-52.3259 l -7.7782,-62.9325 z"
                     style="fill:#17040a;fill-opacity:1;stroke:none" />
                  <path
                     sodipodi:nodetypes="ccccccc"
                     inkscape:connector-curvature="0"
                     id="path4270"
                     d="m -2145.8848,1969.637 c 2.4788,0.2725 6.0402,3.2798 9.7955,5.7405 24.8654,-7.3922 118.9059,85.9742 118.9285,99.7261 l -80.5011,0 -111.0673,0 c -1.5769,-35.0214 33.1136,-84.4302 62.8443,-105.4669 z"
                     style="fill:#0b0205;fill-opacity:1;stroke:none" />
                </g>
              </g>
            </g>
          </g>
        </g>
      </g>
    </g>
  </g>
</svg>
