<?xml version="1.0" encoding="UTF-8" standalone="no"?>
<!-- Created with Inkscape (http://www.inkscape.org/) -->

<svg
   xmlns:dc="http://purl.org/dc/elements/1.1/"
   xmlns:cc="http://creativecommons.org/ns#"
   xmlns:rdf="http://www.w3.org/1999/02/22-rdf-syntax-ns#"
   xmlns:svg="http://www.w3.org/2000/svg"
   xmlns="http://www.w3.org/2000/svg"
   xmlns:sodipodi="http://sodipodi.sourceforge.net/DTD/sodipodi-0.dtd"
   xmlns:inkscape="http://www.inkscape.org/namespaces/inkscape"
   width="200"
   height="200"
   id="svg2"
   version="1.1"
   inkscape:version="0.48.0 r9654"
   sodipodi:docname="johnnybravo.svg"
   inkscape:export-filename="F:\doselect\profile pics\johnnybravo.png"
   inkscape:export-xdpi="897.9422"
   inkscape:export-ydpi="897.9422">
  <defs
     id="defs4" />
  <sodipodi:namedview
     id="base"
     pagecolor="#ffffff"
     bordercolor="#666666"
     borderopacity="1.0"
     inkscape:pageopacity="0.0"
     inkscape:pageshadow="2"
     inkscape:zoom="1.979899"
     inkscape:cx="161.76503"
     inkscape:cy="91.396523"
     inkscape:document-units="px"
     inkscape:current-layer="layer1"
     showgrid="false"
     showguides="true"
     inkscape:guide-bbox="true"
     inkscape:window-width="1366"
     inkscape:window-height="705"
     inkscape:window-x="-8"
     inkscape:window-y="-8"
     inkscape:window-maximized="1" />
  <metadata
     id="metadata7">
    <rdf:RDF>
      <cc:Work
         rdf:about="">
        <dc:format>image/svg+xml</dc:format>
        <dc:type
           rdf:resource="http://purl.org/dc/dcmitype/StillImage" />
        <dc:title></dc:title>
      </cc:Work>
    </rdf:RDF>
  </metadata>
  <g
     inkscape:label="Layer 1"
     inkscape:groupmode="layer"
     id="layer1"
     transform="translate(0,-852.36218)">
    <g
       id="g3964"
       transform="matrix(0.87353318,0,0,0.87353318,12.872018,133.14657)">
      <g
         id="g3979"
         transform="translate(-0.27103092,-0.01806873)">
        <g
           id="g4017">
          <g
             transform="matrix(1.1447762,0,0,1.1476685,-435.68783,458.28712)"
             id="g3874">
            <g
               transform="matrix(1.1519049,0,0,1.0641739,-19450.646,6287.3213)"
               id="g6965">
              <g
                 transform="matrix(1,0,0,0.99132279,0,-48.672492)"
                 id="g6821">
                <g
                   inkscape:export-ydpi="167.89999"
                   inkscape:export-xdpi="167.89999"
                   inkscape:export-filename="F:\inkscape\darth vader.png"
                   transform="translate(84.202826,381.73773)"
                   id="g10666">
                  <g
                     id="g4497">
                    <g
                       id="g10668"
                       style="fill:#6f407b;fill-opacity:1"
                       transform="matrix(0.44281765,0,0,0.44978169,10356.559,-3436.2937)">
                      <rect
                         ry="0"
                         y="-5679.8188"
                         x="15275.521"
                         height="421.31784"
                         width="393.27637"
                         id="rect10670"
                         style="fill:#6f407b;fill-opacity:1;fill-rule:nonzero;stroke:none" />
                    </g>
                    <rect
                       ry="0"
                       y="-5679.8188"
                       x="15471.123"
                       height="421.31784"
                       width="197.67313"
                       id="rect10672"
                       style="fill:#5c3566;fill-opacity:1;fill-rule:nonzero;stroke:none"
                       transform="matrix(0.44281765,0,0,0.44978169,10356.559,-3436.2937)" />
                  </g>
                </g>
              </g>
            </g>
          </g>
          <g
             id="g3994">
            <path
               style="fill:#0f0f0f;fill-opacity:1;stroke:none"
               d="m 89.762664,1006.7995 c -14.518599,3.3757 -23.982674,12.1391 -34.129579,22.7363 -12.345897,-2.1253 -26.27443,-5.1749 -37.590995,-0.9646 -3.142492,8.1973 -6.077907,16.2879 -7.919322,24.2262 l 97.332602,0 1.56251,-23.8463 z"
               id="path3774"
               inkscape:connector-curvature="0"
               sodipodi:nodetypes="ccccccc" />
            <path
               style="fill:#000000;fill-opacity:1;stroke:none"
               d="m 159.32942,996.29075 c 28.33999,-18.02622 39.12891,-9.36837 55.71863,0.034 l 0.26577,56.53903 -115.577039,-0.067 0,-54.5162 z"
               id="path3917"
               inkscape:connector-curvature="0"
               sodipodi:nodetypes="cccccc" />
            <path
               style="fill:#fec483;fill-opacity:1;stroke:none"
               d="m 89.485765,995.77587 0.138463,31.27963 c 6.337673,4.1999 14.452642,6.1998 19.799312,7.0275 l -2.49223,-39.1339 z"
               id="path3772"
               inkscape:connector-curvature="0"
               sodipodi:nodetypes="ccccc" />
            <path
               style="fill:#fde43e;fill-opacity:1;stroke:none"
               d="m 72.372331,931.76612 -10.282628,1.17464 12.768715,18.55298 c -0.405767,-6.51011 3.163327,-12.40211 -2.486087,-19.72762 z"
               id="path3768"
               inkscape:connector-curvature="0"
               sodipodi:nodetypes="cccc" />
            <path
               style="fill:#fed09c;fill-opacity:1;stroke:none"
               d="m 72.271698,930.99204 8.243564,65.4082 23.799608,0.0257 1.63568,-66.99286 z"
               id="path2996"
               inkscape:connector-curvature="0"
               sodipodi:nodetypes="ccccc" />
            <path
               style="fill:#fde43e;fill-opacity:1;stroke:none"
               d="M 72.366876,931.77153 C 24.751128,885.66008 27.780131,831.49256 101.18197,879.45523 l 3.98536,52.3163 z"
               id="path2998"
               inkscape:connector-curvature="0"
               sodipodi:nodetypes="cccc" />
            <path
               style="fill:#fed09c;fill-opacity:1;stroke:none"
               d="m 75.850688,951.70069 c -4.020203,-0.9852 -8.108144,-0.98243 -8.865785,1.01961 -0.701116,1.85084 0.957263,5.68073 2.741303,7.50259 2.562981,2.51146 5.91691,3.21186 7.832286,3.5077 -0.570492,-4.07898 3.981715,-7.48778 -1.707804,-12.0299 z"
               id="path3770"
               inkscape:connector-curvature="0"
               sodipodi:nodetypes="ccccc" />
            <g
               transform="matrix(-0.2741303,0,0,0.2741303,557.92076,870.67983)"
               id="g3800">
              <path
                 style="fill:#febb70;fill-opacity:1;stroke:none"
                 d="m 1546.5436,314.95083 -141.9264,174.25131 c 32.5538,103.78148 185.0061,128.35151 266.8784,98.46841 l -0.067,-131.95138 z"
                 id="path3804"
                 inkscape:connector-curvature="0"
                 sodipodi:nodetypes="ccccc" />
              <path
                 style="fill:#fdde14;fill-opacity:1;stroke:none"
                 d="m 1551.7957,223.77095 -37.51,4.30552 46.579,68.00413 c -1.4802,-23.86216 11.5395,-45.45871 -9.069,-72.30965 z"
                 id="path3806"
                 inkscape:connector-curvature="0"
                 sodipodi:nodetypes="cccc" />
              <path
                 style="fill:#fec789;fill-opacity:1;stroke:none"
                 d="m 1551.4286,220.93361 29.4203,238.11893 90.5775,-0.13163 0,-244.05872 z"
                 id="path3808"
                 inkscape:connector-curvature="0"
                 sodipodi:nodetypes="ccccc" />
              <path
                 style="fill:#fdde14;fill-opacity:1;stroke:none"
                 d="m 1551.7609,223.93869 c -18.4846,-59.40043 -28.5988,-76.82006 -0.8889,-111.32243 30.5891,-38.087328 120.2265,-82.872582 120.5566,-84.032857 l 0,195.207347 z"
                 id="path3810"
                 inkscape:connector-curvature="0"
                 sodipodi:nodetypes="csccc" />
              <path
                 style="fill:#fec789;fill-opacity:1;stroke:none"
                 d="m 1564.4844,296.83916 c -14.6653,-3.61116 -29.5777,-3.60099 -32.3415,3.73731 -2.5576,6.78407 3.492,20.82214 10,27.5 9.3495,9.20552 21.5843,11.77275 28.5714,12.85714 -2.0811,-14.9511 14.5249,-27.44575 -6.2299,-44.09445 z"
                 id="path3812"
                 inkscape:connector-curvature="0"
                 sodipodi:nodetypes="ccccc" />
            </g>
          </g>
        </g>
      </g>
    </g>
  </g>
</svg>
