<?xml version="1.0" encoding="UTF-8" standalone="no"?>
<!-- Created with Inkscape (http://www.inkscape.org/) -->

<svg
   xmlns:dc="http://purl.org/dc/elements/1.1/"
   xmlns:cc="http://creativecommons.org/ns#"
   xmlns:rdf="http://www.w3.org/1999/02/22-rdf-syntax-ns#"
   xmlns:svg="http://www.w3.org/2000/svg"
   xmlns="http://www.w3.org/2000/svg"
   xmlns:sodipodi="http://sodipodi.sourceforge.net/DTD/sodipodi-0.dtd"
   xmlns:inkscape="http://www.inkscape.org/namespaces/inkscape"
   width="200"
   height="200"
   id="svg2"
   version="1.1"
   inkscape:version="0.48.0 r9654"
   sodipodi:docname="nagraj.svg"
   inkscape:export-filename="F:\doselect\profile pics\nagraj.png"
   inkscape:export-xdpi="899.69"
   inkscape:export-ydpi="899.69">
  <defs
     id="defs4" />
  <sodipodi:namedview
     id="base"
     pagecolor="#ffffff"
     bordercolor="#666666"
     borderopacity="1.0"
     inkscape:pageopacity="0.0"
     inkscape:pageshadow="2"
     inkscape:zoom="2.775"
     inkscape:cx="100"
     inkscape:cy="100"
     inkscape:document-units="px"
     inkscape:current-layer="layer1"
     showgrid="false"
     showguides="true"
     inkscape:guide-bbox="true"
     inkscape:window-width="1366"
     inkscape:window-height="705"
     inkscape:window-x="-8"
     inkscape:window-y="-8"
     inkscape:window-maximized="1" />
  <metadata
     id="metadata7">
    <rdf:RDF>
      <cc:Work
         rdf:about="">
        <dc:format>image/svg+xml</dc:format>
        <dc:type
           rdf:resource="http://purl.org/dc/dcmitype/StillImage" />
        <dc:title></dc:title>
      </cc:Work>
    </rdf:RDF>
  </metadata>
  <g
     inkscape:label="Layer 1"
     inkscape:groupmode="layer"
     id="layer1"
     transform="translate(0,-852.36218)">
    <g
       id="g6268"
       transform="matrix(0.99676157,0,0,0.99979737,-8.6351974e-5,0.21324983)">
      <g
         id="g6965"
         transform="matrix(1.1519049,0,0,1.0641739,-19818.583,6821.5602)">
        <g
           id="g6821"
           transform="matrix(1,0,0,0.99132279,0,-48.672492)">
          <g
             id="g10666"
             transform="translate(84.202826,381.73773)"
             inkscape:export-filename="F:\inkscape\darth vader.png"
             inkscape:export-xdpi="167.89999"
             inkscape:export-ydpi="167.89999">
            <g
               id="g4497">
              <g
                 transform="matrix(0.44281765,0,0,0.44978169,10356.559,-3436.2937)"
                 style="fill:#6f407b;fill-opacity:1"
                 id="g10668">
                <rect
                   style="fill:#6f407b;fill-opacity:1;fill-rule:nonzero;stroke:none"
                   id="rect10670"
                   width="393.27637"
                   height="421.31784"
                   x="15275.521"
                   y="-5679.8188"
                   ry="0" />
              </g>
              <rect
                 transform="matrix(0.44281765,0,0,0.44978169,10356.559,-3436.2937)"
                 style="fill:#5c3566;fill-opacity:1;fill-rule:nonzero;stroke:none"
                 id="rect10672"
                 width="197.67313"
                 height="421.31784"
                 x="15471.123"
                 y="-5679.8188"
                 ry="0" />
            </g>
          </g>
        </g>
      </g>
      <g
         id="g4713">
        <g
           id="g4675">
          <path
             sodipodi:nodetypes="cccc"
             transform="translate(0,852.36218)"
             inkscape:connector-curvature="0"
             id="path4671"
             d="m 72,128.875 c -2.708333,3.60828 -3.383735,1.87552 -6.092068,1.92808 2.510216,1.72456 2.674688,5.0861 5.717068,2.44692 z"
             style="fill:#1b1815;fill-opacity:1;stroke:none" />
          <path
             style="fill:#0f0e0c;fill-opacity:1;stroke:none"
             d="m 129.22292,981.19299 c 2.70834,3.60828 3.38374,1.87552 6.09207,1.92808 -2.51022,1.72456 -2.67469,5.0861 -5.71707,2.44692 z"
             id="path4673"
             inkscape:connector-curvature="0"
             sodipodi:nodetypes="cccc" />
          <g
             id="g4638">
            <g
               id="g4608">
              <g
                 transform="matrix(0.95142274,0,0,0.95142274,-5.3627346,58.853972)"
                 id="g4514">
                <g
                   id="g4502"
                   transform="matrix(2.3218167,0,0,2.3218167,-610.53363,-1170.9882)">
                  <g
                     id="g3784">
                    <path
                       style="fill:#1b1815;fill-opacity:1;stroke:none"
                       d="m 313.03571,898.62042 0.53757,-17.14826 c -1.06334,0.0204 -3.3795,0.65989 -4.61931,1.44503 -1.72828,0.98746 -3.07186,4.77065 0.14056,5.52953 -2.06404,-0.26814 -4.13834,-0.47479 -6.31832,-0.0473 -3.21077,3.6848 -6.34134,7.65028 -9.08554,12.96806 0.32794,2.70068 0.5821,5.62268 1.30417,7.14098 1.88585,1.79212 3.60786,2.10968 5.41179,3.16452 z"
                       id="path2998"
                       inkscape:connector-curvature="0"
                       sodipodi:nodetypes="ccccccccc" />
                    <path
                       style="fill:#eba986;fill-opacity:1;stroke:none"
                       d="m 298.50787,915.6854 -1.49869,11.62764 -3.12889,2.00038 0.66721,4.5825 11.99499,8.28084 6.49322,3.58483 0,-16.6787 z"
                       id="path3000"
                       inkscape:connector-curvature="0"
                       sodipodi:nodetypes="cccccccc" />
                    <path
                       style="fill:#eeb89b;fill-opacity:1;stroke:none"
                       d="m 313.03571,898.04313 c -2.12723,-0.51355 -3.72452,-2.37657 -6.16856,-2.62317 -6.82679,0.69974 -7.00502,4.0099 -8.41959,6.93194 0.66638,1.16611 1.33252,2.33306 1.82633,4.13191 0.29806,2.39578 0.3154,4.04288 -0.0113,4.77239 l -0.66348,-2.10403 c -0.96621,-0.76511 -2.70425,-1.88458 -3.21645,-1.46961 -0.96348,1.00763 0.0669,6.94211 2.16269,8.57924 -0.1128,1.91492 -0.0702,3.85204 0.22892,5.8258 3.43943,2.06638 6.28651,4.84911 9.25015,7.51841 l 5.01129,0.27422 z"
                       id="path2996"
                       inkscape:connector-curvature="0"
                       sodipodi:nodetypes="cccccccccccc" />
                    <path
                       style="fill:#bae400;fill-opacity:1;stroke:none"
                       d="m 293.9169,929.27434 c -1.16107,-0.0757 -2.57643,-0.27122 -4.33696,0.0876 -6.75212,1.65577 -11.04761,5.5808 -16.14895,9.97792 -0.7272,-0.77153 -1.70684,-1.63313 -2.31255,-1.87961 -1.83383,-0.4254 -3.86794,-0.26486 -5.73563,0.0226 l -0.0121,16.56651 49.05851,0.0412 0.45029,-9.07307 z"
                       id="path3002"
                       inkscape:connector-curvature="0"
                       sodipodi:nodetypes="ccccccccc" />
                  </g>
                  <g
                     transform="matrix(-1.0115342,0,0,1,625.13041,0)"
                     id="g3790">
                    <path
                       sodipodi:nodetypes="cccccccccc"
                       inkscape:connector-curvature="0"
                       id="path3792"
                       d="m 311.06736,897.1673 -0.0707,-15.00322 c -2.28873,-1.32235 -14.05631,-1.32871 -14.4362,0.8747 3.17998,-0.91212 5.62458,-0.20829 7.17808,1.09708 2.43613,2.25265 1.46796,3.59006 0.93083,4.56254 -1.38308,-0.17307 -3.87984,0.91608 -4.5224,1.34196 -2.94762,2.6322 -3.71213,6.00929 -6.45633,11.32707 0.32794,2.70068 0.5821,5.62268 1.30417,7.14098 1.88585,1.79212 3.60786,2.10968 5.41179,3.16452 z"
                       style="fill:#0f0e0c;fill-opacity:1;stroke:none" />
                    <path
                       sodipodi:nodetypes="cccccccc"
                       inkscape:connector-curvature="0"
                       id="path3794"
                       d="m 298.50787,915.6854 -1.49869,11.62764 -3.12889,2.00038 0.66721,4.5825 11.99499,8.28084 4.46237,3.45983 0,-16.3662 z"
                       style="fill:#e89d76;fill-opacity:1;stroke:none" />
                    <path
                       sodipodi:nodetypes="cccccccccccc"
                       inkscape:connector-curvature="0"
                       id="path3796"
                       d="m 311.06736,897.18376 c -1.18877,-0.82565 -2.68421,-1.30629 -4.20021,-1.7638 -6.75816,-0.19921 -6.89326,3.6203 -8.41959,6.93194 0.66638,1.16611 1.33252,2.33306 1.82633,4.13191 0.29806,2.39578 0.3154,4.04288 -0.0113,4.77239 l -0.66348,-2.10403 c -0.96621,-0.76511 -2.70425,-1.88458 -3.21645,-1.46961 -0.96348,1.00763 0.0669,6.94211 2.16269,8.57924 -0.1128,1.91492 -0.0702,3.85204 0.22892,5.8258 3.43943,2.06638 6.28651,4.84911 9.25015,7.51841 l 3.04294,0.13117 z"
                       style="fill:#ebad8b;fill-opacity:1;stroke:none" />
                    <path
                       sodipodi:nodetypes="cccccccccc"
                       inkscape:connector-curvature="0"
                       id="path3798"
                       d="m 293.63397,929.17531 c -1.16107,-0.0757 -2.2935,-0.17219 -4.05403,0.18667 -6.75212,1.65577 -11.04761,5.5808 -16.14895,9.97792 -0.7272,-0.77153 -1.70684,-1.63313 -2.31255,-1.87961 -1.83383,-0.4254 -3.38021,-0.42491 -5.2479,-0.13747 l -0.009,16.75088 45.14353,-0.005 1e-5,-12.27346 c -6.91622,-3.90845 -11.08882,-8.04644 -17.00728,-12.62007 z"
                       style="fill:#acd300;fill-opacity:1;stroke:none" />
                  </g>
                </g>
              </g>
              <g
                 transform="matrix(1.0446525,0,0,1,-2.7343353,0)"
                 id="g4599">
                <path
                   sodipodi:nodetypes="cssccc"
                   inkscape:connector-curvature="0"
                   id="path4574"
                   d="m 66.009034,1041.116 c -1.088544,6.0449 -1.193702,11.2682 0.866094,11.2269 1.969772,-0.04 4.42445,0.035 8.02553,0.036 7.831926,0 18.259847,0.046 25.526812,-0.01 l -0.0625,-10.8565 z"
                   style="fill:#eeeeec;fill-opacity:1;stroke:none" />
                <path
                   sodipodi:nodetypes="cccc"
                   inkscape:connector-curvature="0"
                   id="path4576"
                   d="m 64.877047,1031.116 c -4.5157,24.2495 20.621801,15.578 35.487923,14.098 l 0,-13.7002 z"
                   style="fill:#d6e3f2;fill-opacity:1;stroke:none" />
                <path
                   style="fill:#eeeeec;fill-opacity:1;stroke:none"
                   d="m 64.877047,176.75386 c -4.5157,24.24944 20.621801,15.57794 35.487923,14.09794 l 0,-13.70019 z"
                   id="path4572"
                   inkscape:connector-curvature="0"
                   sodipodi:nodetypes="cccc"
                   transform="translate(0,852.36218)" />
                <path
                   sodipodi:nodetypes="cccccc"
                   inkscape:connector-curvature="0"
                   id="path4580"
                   d="m 100.31594,1027.6631 c -5.174498,-3.9603 -24.711434,-19.5098 -29.41164,-21.9448 -6.08015,2.3336 -9.974185,17.0925 -9.668385,21.1178 0.388097,4.703 5.571911,4.987 10.444528,5.3033 l 28.654577,-0.1768 z"
                   style="fill:#d6e3f2;fill-opacity:1;stroke:none" />
                <path
                   style="fill:#eeeeec;fill-opacity:1;stroke:none"
                   d="m 100.06211,1026.547 c -5.174499,-3.9603 -24.457604,-20.3937 -29.15781,-22.8287 -6.08015,2.3336 -9.974185,17.0925 -9.668385,21.1178 0.388097,4.703 5.571911,4.987 10.444528,5.3033 l 28.654577,-0.1768 z"
                   id="path4538"
                   inkscape:connector-curvature="0"
                   sodipodi:nodetypes="cccccc" />
              </g>
              <g
                 transform="matrix(-0.97968883,0,0,1,217.74525,-53.28125)"
                 id="g4592">
                <path
                   style="fill:#dfdfdb;fill-opacity:1;stroke:none"
                   d="m 86.009034,1094.366 c -1.088544,6.0449 -1.193702,11.329 0.866094,11.2877 1.969772,-0.04 4.42445,-0.026 8.02553,-0.025 7.831922,0 18.248532,0.09 25.515502,0.034 l -0.0512,-10.9007 z"
                   id="path4582"
                   inkscape:connector-curvature="0"
                   sodipodi:nodetypes="cssccc" />
                <path
                   style="fill:#c5d8ed;fill-opacity:1;stroke:none"
                   d="m 84.877047,1084.5649 c -4.5157,24.2495 20.679663,15.6639 35.545783,14.1839 l -0.0579,-13.7861 z"
                   id="path4584"
                   inkscape:connector-curvature="0"
                   sodipodi:nodetypes="cccc" />
                <path
                   sodipodi:nodetypes="cccc"
                   inkscape:connector-curvature="0"
                   id="path4586"
                   d="m 84.877047,1082.5428 c -4.5157,24.2495 20.679663,15.703 35.545783,14.223 l -0.0579,-13.8252 z"
                   style="fill:#dfdfdb;fill-opacity:1;stroke:none" />
                <path
                   style="fill:#c5d8ed;fill-opacity:1;stroke:none"
                   d="m 120.38223,1080.9794 c -5.1745,-3.9603 -24.711433,-19.5098 -29.411639,-21.9448 -6.08015,2.3336 -9.974185,17.0925 -9.668385,21.1178 0.388097,4.703 5.571911,4.987 10.444528,5.3033 l 28.676096,-0.1977 z"
                   id="path4588"
                   inkscape:connector-curvature="0"
                   sodipodi:nodetypes="cccccc" />
                <path
                   sodipodi:nodetypes="cccccc"
                   inkscape:connector-curvature="0"
                   id="path4590"
                   d="m 120.40341,1078.3386 c -5.1745,-3.9603 -25.638593,-18.0956 -30.338799,-20.5306 -6.08015,2.3336 -9.001913,16.297 -8.696113,20.3223 0.388097,4.703 5.571911,4.987 10.444528,5.3033 l 28.609804,-0.1768 z"
                   style="fill:#dfdfdb;fill-opacity:1;stroke:none" />
              </g>
            </g>
            <path
               style="fill:#edd400;stroke:none"
               d="m 71.948115,113.99814 c -1.22091,6.40083 -1.390653,11.28468 -1.414214,12.99309 0.545863,0.41007 1.00195,0.40447 1.723573,0.28726 0.690565,-4.56927 1.189507,-8.14285 1.314776,-12.93785 -0.541378,-0.25781 -1.082757,-0.31764 -1.624135,-0.3425 z"
               id="path4634"
               inkscape:connector-curvature="0"
               transform="translate(0,852.36218)"
               sodipodi:nodetypes="ccccc" />
            <path
               sodipodi:nodetypes="ccccc"
               inkscape:connector-curvature="0"
               id="path4636"
               d="m 128.77676,966.4929 c 1.22091,6.40083 1.39065,11.28468 1.41421,12.99309 -0.54586,0.41007 -1.00195,0.40447 -1.72357,0.28726 -0.69057,-4.56927 -1.18951,-8.14285 -1.31478,-12.93785 0.54138,-0.25781 1.08276,-0.31764 1.62414,-0.3425 z"
               style="fill:#d6c000;fill-opacity:1;stroke:none" />
          </g>
          <path
             sodipodi:nodetypes="ccc"
             transform="translate(0,852.36218)"
             inkscape:connector-curvature="0"
             id="path4667"
             d="m 14,172.25 c 14.375,1.61301 34.125,4.90252 48.5,10.5 C 42.406558,172.20114 29.959212,171.97206 14,172.25 z"
             style="fill:#9dc100;fill-opacity:1;stroke:none" />
          <path
             style="fill:#8bab00;fill-opacity:1;stroke:none"
             d="m 184.5,1024.6122 c -14.375,1.613 -34.125,4.9025 -48.5,10.5 20.09344,-10.5489 32.54079,-10.778 48.5,-10.5 z"
             id="path4669"
             inkscape:connector-curvature="0"
             sodipodi:nodetypes="ccc" />
        </g>
        <path
           style="fill:#9dc100;fill-opacity:1;stroke:none"
           d="M 22.9375,172.1875 C 31.691797,161.51941 40.58061,157.98065 49.5,156.0625 41.489577,162.58779 33.122065,171.40958 38.6875,174.75 z"
           id="path4709"
           inkscape:connector-curvature="0"
           transform="translate(0,852.36218)"
           sodipodi:nodetypes="cccc" />
        <path
           sodipodi:nodetypes="cccc"
           inkscape:connector-curvature="0"
           id="path4711"
           d="m 173.5,1024.5497 c -8.7543,-10.6681 -17.64311,-14.2069 -26.5625,-16.125 8.01042,6.5253 16.37794,15.3471 10.8125,18.6875 z"
           style="fill:#8bab00;fill-opacity:1;stroke:none" />
      </g>
    </g>
  </g>
</svg>
