<?xml version="1.0" encoding="UTF-8" standalone="no"?>
<!-- Created with Inkscape (http://www.inkscape.org/) -->

<svg
   xmlns:dc="http://purl.org/dc/elements/1.1/"
   xmlns:cc="http://creativecommons.org/ns#"
   xmlns:rdf="http://www.w3.org/1999/02/22-rdf-syntax-ns#"
   xmlns:svg="http://www.w3.org/2000/svg"
   xmlns="http://www.w3.org/2000/svg"
   xmlns:sodipodi="http://sodipodi.sourceforge.net/DTD/sodipodi-0.dtd"
   xmlns:inkscape="http://www.inkscape.org/namespaces/inkscape"
   width="200"
   height="200"
   id="svg2"
   version="1.1"
   inkscape:version="0.48.0 r9654"
   sodipodi:docname="shaktimaan.svg"
   inkscape:export-filename="F:\doselect\profile pics\shaktimaan.png"
   inkscape:export-xdpi="899.79523"
   inkscape:export-ydpi="899.79523">
  <defs
     id="defs4" />
  <sodipodi:namedview
     id="base"
     pagecolor="#ffffff"
     bordercolor="#666666"
     borderopacity="1.0"
     inkscape:pageopacity="0.0"
     inkscape:pageshadow="2"
     inkscape:zoom="2.775"
     inkscape:cx="100"
     inkscape:cy="100"
     inkscape:document-units="px"
     inkscape:current-layer="layer1"
     showgrid="false"
     showguides="true"
     inkscape:guide-bbox="true"
     inkscape:window-width="1366"
     inkscape:window-height="705"
     inkscape:window-x="-8"
     inkscape:window-y="-8"
     inkscape:window-maximized="1" />
  <metadata
     id="metadata7">
    <rdf:RDF>
      <cc:Work
         rdf:about="">
        <dc:format>image/svg+xml</dc:format>
        <dc:type
           rdf:resource="http://purl.org/dc/dcmitype/StillImage" />
        <dc:title />
      </cc:Work>
    </rdf:RDF>
  </metadata>
  <g
     inkscape:label="Layer 1"
     inkscape:groupmode="layer"
     id="layer1"
     transform="translate(0,-852.36218)">
    <g
       id="g4591"
       transform="matrix(0.99639699,0,0,0.99977243,-4.5496069e-4,0.23950427)">
      <g
         transform="matrix(0.69671774,0,0,0.69671774,-272.3301,310.55367)"
         id="g4492">
        <g
           id="g4559">
          <g
             id="g6821"
             transform="matrix(1.6533308,0,0,1.5141568,-28054.783,9270.9708)">
            <g
               id="g10666"
               transform="translate(84.202826,381.73773)"
               inkscape:export-filename="F:\inkscape\darth vader.png"
               inkscape:export-xdpi="167.89999"
               inkscape:export-ydpi="167.89999">
              <g
                 id="g4487">
                <g
                   transform="matrix(0.44281765,0,0,0.44978169,10356.559,-3436.2937)"
                   style="fill:#5554a0;fill-opacity:1"
                   id="g10668">
                  <rect
                     style="fill:#5554a0;fill-opacity:1;fill-rule:nonzero;stroke:none"
                     id="rect10670"
                     width="393.27637"
                     height="421.31784"
                     x="15275.521"
                     y="-5679.8188"
                     ry="0" />
                </g>
                <rect
                   transform="matrix(0.44281765,0,0,0.44978169,10356.559,-3436.2937)"
                   style="fill:#474686;fill-opacity:1;fill-rule:nonzero;stroke:none"
                   id="rect10672"
                   width="197.67313"
                   height="421.31784"
                   x="15471.123"
                   y="-5679.8188"
                   ry="0" />
              </g>
            </g>
          </g>
          <g
             id="g4536">
            <path
               transform="matrix(1.4353015,0,0,1.4353015,390.87579,777.65855)"
               inkscape:connector-curvature="0"
               id="path4507"
               d="m 0,159.72017 5.555839,4.04061 1.9571706,25.69575 0.063134,10.35407 -7.70241317,0 z"
               style="fill:#f6df27;fill-opacity:1;stroke:none" />
            <path
               transform="translate(0,852.36218)"
               style="fill:#821e06;fill-opacity:1;stroke:none"
               d="m 485.12576,130.29947 c -16.38934,3.00287 -45.50897,15.63574 -68.69037,17.1726 -7.69928,0.84806 -15.27844,1.93636 -22.4759,3.78807 l -3.03045,3.283 c 5.00916,5.64002 5.7004,11.28003 7.57614,16.92005 0.9433,3.90083 2.26104,39.50642 2.39688,40.81888 l 140.77163,0.19164 0.27315,-54.1425 z"
               id="path3008"
               inkscape:connector-curvature="0"
               sodipodi:nodetypes="ccccccccc" />
            <path
               sodipodi:nodetypes="cccccc"
               style="fill:#f5db0a;fill-opacity:1;stroke:none"
               d="m 678.61163,1007.1193 -7.97431,5.7995 -2.80913,36.8812 -1.37212,14.733 12.3368,0.1282 z"
               id="path4509"
               inkscape:connector-curvature="0" />
            <path
               sodipodi:nodetypes="ccccccccc"
               inkscape:connector-curvature="0"
               id="path3784"
               d="m 584.25265,982.66165 c 16.38934,3.00287 45.50897,15.63574 68.69037,17.1726 7.69928,0.84805 15.27844,1.93635 22.4759,3.78805 l 3.03045,3.283 c -5.00916,5.64 -5.7004,11.2801 -7.57614,16.9201 -0.9433,3.9008 -3.34845,39.5342 -3.48429,40.8467 l -134.10597,0.1144 0.70892,-53.9145 z"
               style="fill:#6d1905;fill-opacity:1;stroke:none" />
            <path
               style="fill:#f6df27;fill-opacity:1;stroke:none"
               d="m 496.86878,115.77853 -1.38896,0.37881 c -4.35916,5.50447 -8.7553,12.2503 -13.51079,18.30901 11.23266,29.17819 29.2724,28.7382 59.85154,28.78935 l -0.037,-25.1619 z"
               id="path3006"
               inkscape:connector-curvature="0"
               transform="translate(0,852.36218)"
               sodipodi:nodetypes="cccccc" />
            <path
               sodipodi:nodetypes="cccccc"
               inkscape:connector-curvature="0"
               id="path3786"
               d="m 571.57213,967.82821 2.32646,0.69131 c 4.35916,5.50447 8.7553,12.2503 13.51079,18.30901 -11.23093,29.18427 -22.77496,29.09467 -53.4628,28.76537 l 0.0453,-26.03078 z"
               style="fill:#f5db0a;fill-opacity:1;stroke:none" />
            <path
               style="fill:#f9c07d;fill-opacity:1;stroke:none"
               d="m 498.55492,105.26625 c -1.17175,2.47827 -1.37052,7.60802 -1.55987,11.39616 7.83084,18.7963 13.3122,21.4514 37.82425,20.47092 l -0.0482,-7.96677 -18.08395,-7.96677 z"
               id="path3004"
               inkscape:connector-curvature="0"
               transform="translate(0,852.36218)"
               sodipodi:nodetypes="cccccc" />
            <path
               sodipodi:nodetypes="ccccc"
               inkscape:connector-curvature="0"
               id="path3782"
               d="m 569.91121,956.69093 c 1.17175,2.47827 1.59374,8.54552 1.78309,12.33366 -7.83084,18.7963 -13.19036,21.49221 -37.70241,20.51173 l 0,-15.08341 z"
               style="fill:#f9b76b;fill-opacity:1;stroke:none" />
            <path
               style="fill:#facd98;fill-opacity:1;stroke:none"
               d="M 541.96428,134.86607 541.42857,-5.0000003 515.71429,-1.7857146 487.14286,9.285714 484.28572,35 l 2.5,22.5 c -2.25001,-2.503267 -2.15435,-3.030299 -3.75,-2.142857 -2.79116,1.681322 -3.68784,3.500719 -3.57143,5.357142 0.42581,6.790738 3.54863,13.159186 6.60714,19.285715 1.07194,1.869427 2.07103,3.926178 4.28571,2.857143 3.02002,14.740004 9.64678,27.685967 18.21429,38.571427 6.57248,8.41269 11.53087,14.65925 26.47321,15.04464 z"
               id="path2996"
               inkscape:connector-curvature="0"
               transform="translate(0,852.36218)"
               sodipodi:nodetypes="cccccccsccccc" />
            <path
               style="fill:#0f0801;fill-opacity:1;stroke:none"
               d="M 505.75992,11.962379 493.9646,27.263915 c -6.80278,16.411086 -5.09725,25.492279 -4.79823,38.638334 l -8.83883,-8.838834 c -2.39331,-4.471802 -3.2428,-9.823517 -6.06092,-12.879445 -2.40257,-16.786176 -3.38481,-33.08278 4.04061,-48.7398606 8.71722,-15.4410134 12.78159,-19.0715354 26.16068,-25.9821044 l -8.57098,17.306522 0.4311,11.3042543 4.81355,8.8235157 z"
               id="path2998"
               inkscape:connector-curvature="0"
               transform="translate(0,852.36218)"
               sodipodi:nodetypes="ccccccccccc" />
            <path
               sodipodi:nodetypes="cccccccsccccc"
               inkscape:connector-curvature="0"
               id="path3780"
               d="m 533.99189,988.80271 -0.062,-141.68606 18.92857,3.57143 28.57143,11.07142 2.85714,25.71429 -2.5,22.5 c 2.25001,-2.50327 2.15435,-3.0303 3.75,-2.14286 2.79116,1.68133 3.68784,3.50072 3.57143,5.35715 -0.42581,6.79073 -3.54863,13.15918 -6.60714,19.28571 -1.07194,1.86943 -2.07103,3.92618 -4.28571,2.85714 -3.02002,14.74001 -9.64678,27.68597 -18.21429,38.57143 -6.57523,8.41489 -8.83648,12.45275 -24.10714,14.91071 z"
               style="fill:#f9c383;fill-opacity:1;stroke:none" />
            <path
               style="fill:#080500;fill-opacity:1;stroke:none"
               d="m 505.58135,12.111626 c 15.32025,-4.5938097 25.07122,-3.5148836 36.11295,4.798225 l 0,-52.780471 c -8.28032,1.240987 -12.44478,1.906985 -17.9302,5.808378 l -6.06092,-1.767767 c -3.02789,-0.760934 -8.2658,-1.430891 -13.38452,1.26269 l -9.34391,17.930208 0.75761,10.8591399 3.283,7.0710678 z"
               id="path3000"
               inkscape:connector-curvature="0"
               transform="translate(0,852.36218)"
               sodipodi:nodetypes="cccccccccc" />
            <path
               style="fill:#020100;fill-opacity:1;stroke:none"
               d="m 534.10714,-34.531334 0,46.827652 c 12.88969,9.214483 24.77545,10.799067 37.13412,15.977749 12.28371,12.896133 8.18605,18.81924 8.33376,35.355339 l 4.54569,-6.060915 c 1.17936,-1.874884 1.83979,-0.730732 3.68084,0.02365 1.84432,-1.392732 4.04388,-19.318821 4.02157,-22.625818 -1.6967,-18.304941 -2.85575,-37.9243558 -13.25825,-51.138973 -10.78684,-13.592 -27.48294,-23.785709 -44.45773,-18.358689 z"
               id="path3002"
               inkscape:connector-curvature="0"
               transform="translate(0,852.36218)"
               sodipodi:nodetypes="ccccccccc" />
            <path
               sodipodi:nodetypes="ccccccc"
               inkscape:connector-curvature="0"
               id="path4511"
               d="m 533.49303,1053.5806 c 2.2707,-11.8733 6.63532,-18.7213 10.85204,-25.9242 5.55255,9.0434 7.7847,18.0867 3.31587,27.13 11.40429,-13.0014 13.61268,-12.9766 29.54159,-13.8664 -8.43691,13.6884 -12.40856,17.6832 -19.30928,23.8421 l -24.40782,0.058 z"
               style="fill:#f5db0a;fill-opacity:1;stroke:none" />
            <path
               style="fill:#f6df27;fill-opacity:1;stroke:none"
               d="m 533.48935,1053.5807 c -2.27073,-11.8733 -6.63532,-18.7214 -10.85204,-25.9243 -5.55256,9.0434 -7.78469,18.0867 -3.31589,27.13 -11.40426,-13.0014 -13.61269,-12.9766 -29.54158,-13.8664 8.4369,13.6884 12.39175,17.7113 19.29248,23.8702 l 24.53249,0.03 z"
               id="path4513"
               inkscape:connector-curvature="0"
               sodipodi:nodetypes="ccccccc" />
          </g>
        </g>
      </g>
      <g
         id="g4587">
        <path
           style="fill:#f6df27;fill-opacity:1;stroke:none"
           d="m 82.515625,200.04687 c -7.731652,-3.66366 -8.480481,-2.85006 -22.523438,-0.0273 z"
           id="path4583"
           inkscape:connector-curvature="0"
           transform="translate(0,852.36218)"
           sodipodi:nodetypes="ccc" />
        <path
           sodipodi:nodetypes="ccc"
           inkscape:connector-curvature="0"
           id="path4585"
           d="m 115.99219,1052.4091 c 7.73165,-3.6637 8.48048,-2.8501 22.52344,-0.027 z"
           style="fill:#f5db0a;fill-opacity:1;stroke:none" />
      </g>
    </g>
  </g>
</svg>
