<?xml version="1.0" encoding="UTF-8" standalone="no"?>
<!-- Created with Inkscape (http://www.inkscape.org/) -->

<svg
   xmlns:dc="http://purl.org/dc/elements/1.1/"
   xmlns:cc="http://creativecommons.org/ns#"
   xmlns:rdf="http://www.w3.org/1999/02/22-rdf-syntax-ns#"
   xmlns:svg="http://www.w3.org/2000/svg"
   xmlns="http://www.w3.org/2000/svg"
   xmlns:sodipodi="http://sodipodi.sourceforge.net/DTD/sodipodi-0.dtd"
   xmlns:inkscape="http://www.inkscape.org/namespaces/inkscape"
   width="200"
   height="200"
   id="svg2"
   version="1.1"
   inkscape:version="0.48.0 r9654"
   inkscape:export-filename="F:\doselect\profile pics\wonderwoman.png"
   inkscape:export-xdpi="900"
   inkscape:export-ydpi="900"
   sodipodi:docname="wonderwoman.svg">
  <defs
     id="defs4" />
  <sodipodi:namedview
     id="base"
     pagecolor="#ffffff"
     bordercolor="#666666"
     borderopacity="1.0"
     inkscape:pageopacity="0.0"
     inkscape:pageshadow="2"
     inkscape:zoom="2.775"
     inkscape:cx="100"
     inkscape:cy="100"
     inkscape:document-units="px"
     inkscape:current-layer="g5201"
     showgrid="false"
     inkscape:window-width="1366"
     inkscape:window-height="705"
     inkscape:window-x="-8"
     inkscape:window-y="-8"
     inkscape:window-maximized="1" />
  <metadata
     id="metadata7">
    <rdf:RDF>
      <cc:Work
         rdf:about="">
        <dc:format>image/svg+xml</dc:format>
        <dc:type
           rdf:resource="http://purl.org/dc/dcmitype/StillImage" />
        <dc:title></dc:title>
      </cc:Work>
    </rdf:RDF>
  </metadata>
  <g
     inkscape:label="Layer 1"
     inkscape:groupmode="layer"
     id="layer1"
     transform="translate(0,-852.36218)">
    <g
       transform="matrix(1.0000996,0,0,0.9982276,-0.16675247,1.5076755)"
       id="layer1-9"
       inkscape:label="Layer 1">
      <g
         id="g4430" />
      <g
         id="g6735"
         transform="matrix(1.1519049,0,0,1.0549399,-19725.707,7177.6039)">
        <g
           id="g6761"
           transform="translate(-0.00418845,0.27996382)">
          <g
             id="g5201">
            <g
               id="g3061"
               transform="matrix(1,0,0,1.0017441,0,10.126926)"
               inkscape:export-filename="F:\doselect\profile pics\wonder woman.png"
               inkscape:export-xdpi="900"
               inkscape:export-ydpi="900">
              <rect
                 ry="0"
                 y="-5996.1094"
                 x="17124.426"
                 height="189.58553"
                 width="173.58784"
                 id="rect6656"
                 style="fill:#25579e;fill-opacity:1;fill-rule:nonzero;stroke:none" />
              <rect
                 style="fill:#204a87;fill-opacity:1;fill-rule:nonzero;stroke:none"
                 id="rect6658"
                 width="87.250732"
                 height="189.39594"
                 x="17210.783"
                 y="-5996.0908"
                 ry="0" />
              <g
                 transform="matrix(0.87847162,0,0,0.87847162,2091.5969,-706.04441)"
                 id="g3045">
                <path
                   style="fill:#bb0000;fill-opacity:1;stroke:none"
                   d="m 25.357143,170.35714 c 4.486026,10.35925 9.642784,21.63005 12.020336,29.79617 L 99.642857,200.35714 99.441964,170.625 91.071429,175.71429 77.5,162.85714 z"
                   id="path5172"
                   inkscape:connector-curvature="0"
                   sodipodi:nodetypes="ccccccc"
                   transform="matrix(0.86812722,0,0,0.9479213,17124.427,-5996.1113)" />
                <path
                   sodipodi:nodetypes="ccccccc"
                   inkscape:connector-curvature="0"
                   id="path5199"
                   d="m 17275.106,-5834.4763 c -3.895,9.8197 -8.411,20.6575 -10.475,28.3983 l -53.966,-0.118 0.175,-28.1837 7.266,4.8242 11.782,-12.1875 z"
                   style="fill:#a30000;fill-opacity:1;stroke:none" />
                <g
                   id="g3010">
                  <g
                     transform="matrix(0.17908082,0,0,0.19554107,17082.702,-6057.6486)"
                     id="g4434">
                    <path
                       style="fill:#ffe71b;fill-opacity:1;stroke:none"
                       d="m 724.28572,-372.14286 0,143.57143 -9.28572,6.42857 c -29.4554,-23.72933 -66.57982,-43.47324 -99.10714,-43.57143 l 33.39285,-67.14285 67.41521,-45.14979 z"
                       id="path2996"
                       inkscape:connector-curvature="0"
                       transform="translate(0,852.36218)"
                       sodipodi:nodetypes="ccccccc" />
                    <path
                       style="fill:#0c0c0c;fill-opacity:1;stroke:none"
                       d="m 725.35715,-370.17857 1.07142,-130.71429 c -10.23042,0.69797 -20.22523,7.38917 -20.71428,10.89286 -39.402,-12.29541 -73.64519,-19.43119 -96.42858,12.14286 -17.21735,27.50998 -30.63725,52.48833 -39.28571,74.28571 -15.3528,56.40287 -37.10188,101.85603 -58.57143,136.42857 -9.14987,15.41497 -6.95093,28.07471 -5,47.14286 L 517.5,-151.42858 c 5.35204,24.15052 -6.68308,50.30725 6.07143,74.285723 16.97385,35.639411 26.04621,39.968079 55.71428,55.714285 20.80051,15.3589447 9.32388,22.08918232 -6.42857,42.142858 C 536.95516,56.665175 507.54138,13.292485 474.28571,-20.714286 495.82188,93.913464 600.3523,106.35324 647.85714,43.571428 681.56557,-12.16159 641.24517,-61.724494 619.28571,-100 c 0,0 -17.14285,-31.42857 -17.14285,-34.28571 0,-2.85715 -10,-86.42858 -10,-86.42858 26.17248,-28.19859 39.3227,-73.76021 57.85714,-112.14285 l 66.60714,-43.57143 z"
                       id="path2998"
                       inkscape:connector-curvature="0"
                       transform="translate(0,852.36218)"
                       sodipodi:nodetypes="ccccccccccccccscccc" />
                    <path
                       sodipodi:nodetypes="ccccc"
                       inkscape:connector-curvature="0"
                       id="path3770"
                       d="m 714.97833,630.22922 c 31.60882,-22.1837 90.0215,-49.02521 122.14186,-43.42597 l -28.65589,-73.6375 -91.84556,-37.24456 c 0,30.0994 -1.64041,130.51976 -1.64041,154.30803 z"
                       style="fill:#f1d800;fill-opacity:1;stroke:none" />
                    <path
                       style="fill:#000000;fill-opacity:1;stroke:none"
                       d="m 715.22428,-497.96511 c 42.5631,-16.84865 74.76128,-8.86761 103.50436,22.17306 53.1147,61.71068 84.67805,131.9975 94.1285,201.50634 57.09058,86.86454 59.58792,135.12312 16.42858,212.857138 L 937.14286,-25 C 940.65692,0.13554565 926.73785,12.196243 915.71429,26.428571 849.11717,65.988594 851.84881,80.689613 915,153.57143 c 21.78467,38.26754 15.42004,50.1575 0.71429,67.14286 -50.81236,52.79694 -114.06919,42.74534 -118.57143,-32.14286 20.45683,43.56796 75.96324,45.68384 63.39285,-13.03571 -16.73162,-31.39044 -65.30992,-18.33034 -67.67857,-53.39286 -5.69907,-40.108716 10.2839,-71.964237 35,-99.285717 -8.86496,-15.6531712 -9.13687,-59.233744 -10.71428,-98.571429 27.97236,-52.750974 28.6765,-110.761364 22.14286,-172.142854 -7.84826,-31.18136 -19.76138,-60.84626 -31.42858,-90.71429 L 716.19815,-376.25 z"
                       id="path3772"
                       inkscape:connector-curvature="0"
                       transform="translate(0,852.36218)"
                       sodipodi:nodetypes="ccccccccccccccccc" />
                    <path
                       style="fill:#ffe71b;fill-opacity:1;stroke:none"
                       d="m 715.22428,1081.8968 -30.48386,63.9286 c -27.1545,-35.2583 -55.16561,-73.4864 -92.50001,-70.3571 -78.65594,14.7161 -162.23678,42.4123 -236.42857,65.7142 l 96.78572,12.5 c 43.84569,-12.6552 88.50319,-26.1222 125,-31.4285 38.28139,-8.0727 87.83429,62.4256 115,96.4285 l 22.62672,-47.8571 z"
                       id="path3774"
                       inkscape:connector-curvature="0"
                       sodipodi:nodetypes="ccccccccc" />
                    <path
                       sodipodi:nodetypes="ccccccccc"
                       inkscape:connector-curvature="0"
                       id="path3776"
                       d="m 715.22428,1187.0632 -18.341,46.3529 c -27.1545,-30.6862 -71.59418,-108.2427 -108.92858,-105.5192 -78.65594,12.8078 -102.95107,29.7696 -177.14286,50.0498 l 90.35715,13.7363 c 36.70283,-12.4428 33.50319,-14.8778 70,-19.496 27.84155,-7.7494 88.83016,81.7131 123.57143,110.3528 l 20.48386,-18.0799 z"
                       style="fill:#ffe71b;fill-opacity:1;stroke:none" />
                    <path
                       sodipodi:nodetypes="ccccccccc"
                       inkscape:connector-curvature="0"
                       id="path3778"
                       d="m 715.14352,1081.8445 30.39457,64.1072 c 27.1545,-35.2583 55.16561,-73.4864 92.50001,-70.3571 78.65594,14.7161 162.2368,42.4123 236.4286,65.7143 l -96.78575,12.5 c -43.84569,-12.6553 -88.50319,-26.1223 -125,-31.4286 -38.28139,-8.0727 -87.83429,62.4256 -115,96.4286 l -22.56359,-47.7941 z"
                       style="fill:#f1d800;fill-opacity:1;stroke:none" />
                    <path
                       style="fill:#f1d800;fill-opacity:1;stroke:none"
                       d="m 715.15562,1187.1512 18.23961,46.3912 c 27.1545,-30.6862 71.59418,-108.2427 108.92858,-105.5192 78.65594,12.8078 102.95107,29.7696 177.14289,50.0498 l -90.35718,13.7363 c -36.70283,-12.4428 -33.50319,-14.8778 -70,-19.496 -27.84155,-7.7494 -88.83016,81.7131 -123.57143,110.3528 l -20.48386,-18.0799 z"
                       id="path3780"
                       inkscape:connector-curvature="0"
                       sodipodi:nodetypes="ccccccccc" />
                  </g>
                  <path
                     inkscape:transform-center-y="-0.76291941"
                     inkscape:transform-center-x="-0.036687177"
                     transform="matrix(0.54032719,0.02624655,-0.02403717,0.58999147,17160.032,-5977.2937)"
                     d="m 104.29825,54.664303 -7.94256,-1.850448 -7.816155,2.327253 -0.694504,-8.125642 -4.628674,-6.714445 7.513331,-3.171474 4.955477,-6.477008 5.337995,6.165563 7.69133,2.711433 -4.21427,6.982002 z"
                     inkscape:randomized="0"
                     inkscape:rounded="0"
                     inkscape:flatsided="false"
                     sodipodi:arg2="1.540549"
                     sodipodi:arg1="0.91223044"
                     sodipodi:r2="8.7601604"
                     sodipodi:r1="13.411297"
                     sodipodi:cy="44.057701"
                     sodipodi:cx="96.090759"
                     sodipodi:sides="5"
                     id="path4459"
                     style="fill:#bb0000;fill-opacity:1;fill-rule:nonzero;stroke:none"
                     sodipodi:type="star" />
                  <path
                     style="fill:#a40000;fill-opacity:1;stroke:none"
                     d="m 17210.997,-5956.6976 c 0.139,0.194 2.398,3.2958 2.719,3.7487 l 4.112,1.8423 -2.45,4.0364 -0.28,4.7859 -4.279,-1.3283 0.158,-13.0224 z"
                     id="path6717"
                     inkscape:connector-curvature="0"
                     sodipodi:nodetypes="cccccccc" />
                </g>
              </g>
            </g>
          </g>
        </g>
      </g>
    </g>
  </g>
</svg>
